<svg xmlns="http://www.w3.org/2000/svg" width="166" height="40" viewBox="0 0 166 40" fill="none"><rect width="165.963" height="40" rx="4" fill="#051021"></rect><path d="M81.9829 14.2727V25.9091H80.1079L74.625 17.983H74.5284V25.9091H72.4204V14.2727H74.3068L79.7841 22.2045H79.8864V14.2727H81.9829ZM88.0525 26.0795C87.1775 26.0795 86.4219 25.8977 85.7855 25.5341C85.1529 25.1667 84.6662 24.6477 84.3253 23.9773C83.9844 23.303 83.8139 22.5095 83.8139 21.5966C83.8139 20.6989 83.9844 19.911 84.3253 19.233C84.67 18.5511 85.151 18.0208 85.7685 17.642C86.3859 17.2595 87.1113 17.0682 87.9446 17.0682C88.4825 17.0682 88.9901 17.1553 89.4673 17.3295C89.9484 17.5 90.3726 17.7652 90.7401 18.125C91.1113 18.4848 91.4029 18.9432 91.6151 19.5C91.8272 20.053 91.9332 20.7121 91.9332 21.4773V22.108H84.7798V20.7216H89.9616C89.9579 20.3277 89.8726 19.9773 89.706 19.6705C89.5393 19.3598 89.3063 19.1155 89.0071 18.9375C88.7116 18.7595 88.3669 18.6705 87.973 18.6705C87.5525 18.6705 87.1832 18.7727 86.8651 18.9773C86.5469 19.178 86.2988 19.4432 86.1207 19.7727C85.9465 20.0985 85.8575 20.4564 85.8537 20.8466V22.0568C85.8537 22.5644 85.9465 23 86.1321 23.3636C86.3177 23.7235 86.5772 24 86.9105 24.1932C87.2438 24.3826 87.634 24.4773 88.081 24.4773C88.3802 24.4773 88.651 24.4356 88.8935 24.3523C89.1359 24.2652 89.3461 24.1383 89.5241 23.9716C89.7022 23.8049 89.8366 23.5985 89.9276 23.3523L91.848 23.5682C91.7268 24.0758 91.4957 24.5189 91.1548 24.8977C90.8177 25.2727 90.3859 25.5644 89.8594 25.7727C89.3329 25.9773 88.7306 26.0795 88.0525 26.0795ZM95.4276 25.9091L92.9616 17.1818H95.0582L96.5923 23.3182H96.6719L98.24 17.1818H100.314L101.882 23.2841H101.967L103.479 17.1818H105.581L103.109 25.9091H100.967L99.331 20.0114H99.2116L97.5753 25.9091H95.4276ZM106.903 25.9091V24.6023L111.403 18.9602V18.8864H107.051V17.1818H113.92V18.5852L109.636 24.1307V24.2045H114.068V25.9091H106.903Z" fill="white"></path><path d="M119.334 25.9091L121.266 14.2727H123.374L121.737 24.142H126.862L126.567 25.9091H119.334ZM132.436 14.2727L130.504 25.9091H128.396L130.328 14.2727H132.436ZM136.276 14.2727L137.787 23.4318H137.906L142.446 14.2727H144.764L138.73 25.9091H136.128L133.963 14.2727H136.276ZM144.365 25.9091L146.297 14.2727H153.865L153.57 16.0398H148.109L147.587 19.1989H152.655L152.359 20.9659H147.291L146.768 24.142H152.274L151.979 25.9091H144.365Z" fill="#0066B3"></path><path d="M0 4C0 1.79086 1.79086 0 4 0H58.8235V40H4C1.79087 40 0 38.2091 0 36V4Z" fill="#0066B3"></path><path fill-rule="evenodd" clip-rule="evenodd" d="M24.1059 12.5393C23.7135 12.6562 23.4691 12.949 23.3659 13.4257C23.3426 13.5333 23.3326 15.5663 23.3334 20.0141C23.3343 25.2675 23.3422 26.4804 23.3766 26.6296C23.4645 27.0112 23.6768 27.2929 23.9796 27.4298C24.1075 27.4876 24.1844 27.5004 24.4037 27.5C24.7067 27.4995 24.9131 27.4499 25.2301 27.3011C25.5583 27.1471 34.6579 21.3384 34.8673 21.1491C35.0788 20.9581 35.2802 20.6786 35.36 20.4657C35.4459 20.2362 35.4373 19.7242 35.3437 19.5033C35.2471 19.2751 35.1053 19.0821 34.8823 18.875C34.7479 18.7502 33.3779 17.8604 30.2059 15.8377C27.7385 14.2641 25.5881 12.9031 25.4272 12.8131C24.9341 12.5372 24.4498 12.4368 24.1059 12.5393Z" fill="white"></path></svg>